<svg width="16" height="16" viewBox="0 0 16 16" xmlns="http://www.w3.org/2000/svg" fill="currentColor">
  <path d="M 12.8717 5.83448 C 13.0564 5.62923 13.0397 5.31308 12.8345 5.12835 C 12.6292 4.94362 12.3131 4.96026 12.1284 5.16552 L 8 9.197 L 3.87165 5.16552 C 3.68692 4.96026 3.37078 4.94362 3.16552 5.12835 C 2.96027 5.31308 2.94363 5.62923 3.12836 5.83448 L 7.62836 10.8345 C 7.72318 10.9398 7.85826 11 8 11 C 8.14175 11 8.27683 10.9398 8.37165 10.8345 L 12.8717 5.83448 Z" />
  <path d="M 8.5 2 C 8.5 1.72386 8.27615 1.5 8 1.5 C 7.72386 1.5 7.5 1.72386 7.5 2 V 13.197 L 3.87165 9.16552 C 3.68692 8.96026 3.37078 8.94362 3.16552 9.12835 C 2.96027 9.31308 2.94363 9.62923 3.12836 9.83448 L 7.62836 14.8345 C 7.72318 14.9398 7.85826 15 8 15 C 8.14175 15 8.27683 14.9398 8.37165 14.8345 L 12.8717 9.83448 C 13.0564 9.62923 13.0397 9.31308 12.8345 9.12835 C 12.6292 8.94362 12.3131 8.96026 12.1284 9.16552 L 8.5 13.197 V 2 Z" />
</svg>
